<svg xmlns="http://www.w3.org/2000/svg" viewBox="0 0 135.3 58.23"><defs><style>.cls-1{fill:#fff;}</style></defs><g id="Layer_2" data-name="Layer 2"><g id="Graphic_Elements" data-name="Graphic Elements"><path class="cls-1" d="M135.29,42.38A15.25,15.25,0,0,1,120.42,58l-8.85.22A15.27,15.27,0,0,1,95.94,43.35l-.14-5.79h0a15.22,15.22,0,0,1,2-7.93l.61-1.07a2.66,2.66,0,0,0,.18-2.22A2.62,2.62,0,0,0,97,24.77l-1.16-.42a78,78,0,0,0-56,1l-1,.41a2.63,2.63,0,0,0-1.4,3.57l.46,1a15.33,15.33,0,0,1,1.42,6.06l.14,5.8A15.25,15.25,0,0,1,24.63,57.78L15.78,58A15.28,15.28,0,0,1,.15,43.13L0,37.32a15.24,15.24,0,0,1,.65-4.81A22.51,22.51,0,0,1,8.68,21a97.73,97.73,0,0,1,117.09-2.91c7.37,5.26,9.53,12.22,9.17,15.62,0,.11,0,.22,0,.33v.27a2.07,2.07,0,0,0,0,.35,14.12,14.12,0,0,1,.17,1.95Z"/></g></g></svg>